<svg width="46" height="46" viewBox="0 0 46 46" fill="none" xmlns="http://www.w3.org/2000/svg">
<g id="Frame" clip-path="url(#clip0_1795_589)">
<path id="Vector" d="M35.2388 11.949C34.8633 11.8896 34.4838 11.851 34.1133 11.7673C30.8048 11.0186 27.5041 10.2292 24.188 9.51738C20.8509 8.80151 17.4982 8.16164 14.0318 7.46407C13.7383 8.55954 13.4334 9.6177 13.1725 10.6861C12.5659 13.1747 11.9927 15.6714 11.3741 18.1576C11.2577 18.6247 11.3788 18.9296 11.6461 19.3189C12.4675 20.5169 13.5327 21.0896 15.0085 21.3566C17.6745 21.8389 20.2911 22.6031 22.9252 23.2607C23.2112 23.3318 23.4915 23.4537 23.7508 23.5948C23.8648 23.6572 23.9173 23.8278 23.9981 23.9491C23.8509 24.0343 23.7103 24.1687 23.5534 24.1897C23.4079 24.2091 23.2457 24.1049 23.0888 24.0605C19.9787 23.1836 16.8679 22.3064 13.757 21.4324C13.7126 21.4205 13.6599 21.4367 13.3893 21.453C15.1493 23.2116 16.8076 24.8674 18.4981 26.5568C21.0832 25.4898 23.4611 25.3858 25.1724 28.2572C27.542 27.6752 29.8945 27.1306 32.226 26.5135C33.6289 26.1419 35.0042 25.6696 36.3809 25.2124C36.5975 25.1404 36.8716 24.9452 36.9303 24.7499C38.0688 20.9977 39.1796 17.2366 40.2955 13.4768C40.2278 13.3512 40.1598 13.2263 40.0913 13.1005L40.7152 13.2677C40.3464 14.6443 40.0175 16.0106 39.6066 17.3518C39.3766 18.1038 39.3438 18.7794 39.769 19.4811C40.0167 19.8901 40.132 20.3734 40.3547 20.799C41.1645 22.3481 41.443 23.9433 40.9017 25.6264C40.8182 25.5862 40.7349 25.5452 40.6515 25.5049C40.7256 25.1424 40.8005 24.7802 40.873 24.4267C40.2405 24.7174 39.7095 25.0462 39.1301 25.2125C36.3682 26.0047 33.6006 26.7829 30.8184 27.5059C29.0965 27.9531 27.3453 28.2913 25.5227 28.6975C25.6356 28.8407 25.7119 28.9195 25.7675 29.0107C28.1462 32.9547 30.5255 36.899 32.8939 40.8488C33.0319 41.0789 33.0815 41.3608 33.1727 41.618C33.1256 41.6311 33.0787 41.6435 33.0316 41.6565C32.891 41.4686 32.7497 41.2805 32.6089 41.0933L32.2435 40.5025C31.9268 40.0284 31.6109 39.5544 31.2945 39.0795C31.1713 38.883 31.049 38.686 30.9257 38.4894C30.6091 38.0153 30.2924 37.5412 29.9751 37.0668L29.724 36.6733L28.7972 35.2501C28.629 34.9878 28.4601 34.7253 28.2917 34.4637L27.2917 32.8465C27.0717 32.5174 26.8517 32.1882 26.6317 31.8591C26.3765 31.4513 26.1213 31.0434 25.8664 30.6349C25.6833 30.3717 25.5012 30.108 25.3182 29.8449C25.182 29.6316 25.0466 29.4186 24.9104 29.2054C24.7614 29.0105 24.6133 28.8151 24.4642 28.6202C23.4521 26.9982 22.3096 26.5223 20.3332 26.899C19.973 26.9987 19.5936 27.0574 19.2551 27.2058C16.4976 28.4165 13.7483 29.6434 10.9963 30.8658C10.5274 31.1138 10.0592 31.3621 9.5904 31.6094C9.19692 31.8271 8.80345 32.0448 8.40998 32.2625C7.39155 32.79 6.37511 33.3219 5.35253 33.8413C5.15264 33.9427 4.92027 34.2658 4.71404 33.8291C8.95077 31.1757 13.3056 28.7322 17.8669 26.7684C14.3482 23.0639 10.875 19.4082 7.35699 15.7038C7.1966 16.3024 7.02322 16.8578 6.89995 17.4243C6.32162 20.0824 5.77398 22.7472 5.18381 25.4021C4.70929 27.5368 4.18223 29.6605 3.69051 31.7913C3.5294 32.4901 3.39047 33.1949 3.27544 33.9022C3.25495 34.0259 3.4036 34.1779 3.4749 34.3169C3.2735 34.625 3.07284 34.9333 2.87145 35.2413C2.83891 35.2918 2.80544 35.3428 2.77291 35.3932C2.67042 35.4475 2.56718 35.5016 2.46489 35.5552L2.73963 35.7658C2.74402 35.8145 2.74747 35.8637 2.75112 35.9122C2.67634 35.9459 2.60155 35.9795 2.52676 36.0132C2.09456 35.79 1.88587 35.4304 1.95574 34.9656C2.19191 33.3923 2.36451 31.8019 2.7181 30.2546C3.61567 26.3312 4.58094 22.4213 5.55636 18.5148C5.86563 17.2749 6.20393 16.0271 6.69964 14.8542C6.97626 14.2004 7.51647 13.5829 8.09044 13.141C9.40409 12.1297 10.7974 11.2145 12.19 10.3076C12.5845 10.0505 12.8244 9.7823 12.8764 9.32207C12.9661 8.53482 13.0941 7.75238 13.1783 6.96519C13.2256 6.5255 13.4814 6.44301 13.8539 6.50777C14.9206 6.69315 16.0024 6.82187 17.0486 7.08973C17.9279 7.3152 18.7056 7.2721 19.5571 6.95058C21.6982 6.14228 23.9036 5.54041 26.1883 5.21907C28.2202 4.93354 29.9036 5.59403 31.3805 6.93342C32.8874 8.29955 34.1263 9.88269 35.2375 11.5664C35.2967 11.6562 35.2403 11.8194 35.2383 11.9481L35.2388 11.949ZM34.2097 11.2894L34.3245 11.1862C33.6022 10.2242 32.9365 9.21352 32.1433 8.31194C31.0732 7.09556 29.7348 6.14989 28.0703 6.09319C25.3215 5.99976 22.7239 6.80875 20.1407 7.7236C24.8303 8.91243 29.5201 10.1005 34.2097 11.2894ZM12.6587 10.708C10.759 11.5086 8.44009 13.2199 8.2151 13.9413C9.35611 14.0563 10.504 14.1724 11.6983 14.2923L12.6589 10.7073L12.6587 10.708ZM10.651 18.0884L11.4121 15.248C10.3029 15.1447 9.26157 15.0478 8.06025 14.9362C8.99361 16.0715 9.79074 17.0411 10.651 18.0884ZM39.0487 20.0846L38.9115 20.0969L38.3392 22.2326C38.932 22.5161 39.5163 22.7956 40.1008 23.0745C40.1402 23.0337 40.1795 22.9936 40.2189 22.9528C39.8287 21.9964 39.4391 21.0403 39.0489 20.0839L39.0487 20.0846ZM37.6533 24.8222C38.4253 24.5518 39.1136 24.3103 39.8018 24.0688L39.7874 23.8921C39.2499 23.6033 38.7125 23.3145 38.139 23.0066L37.6523 24.8227L37.6533 24.8222Z" fill="#1D4648" stroke="#1D4648" stroke-width="0.25"/>
<path id="Vector_2" d="M40.6523 25.506C40.7358 25.5463 40.8191 25.5873 40.9026 25.6276C40.3265 27.6533 39.8123 29.6995 39.1603 31.701C37.9047 35.5533 36.5762 39.3815 35.2659 43.2162C34.972 44.0764 34.3692 44.3392 33.441 44.166C23.7934 42.3704 14.3658 39.6707 4.89796 37.1447C4.06613 36.9226 3.31528 36.3983 2.52666 36.0149C2.60145 35.9812 2.67623 35.9475 2.75102 35.9139C3.20046 36.0935 3.63605 36.3277 4.10168 36.4439C6.65503 37.0806 9.21012 37.7107 11.7741 38.302C15.2887 39.1122 18.8128 39.8812 22.3314 40.6769C24.2633 41.1136 26.1902 41.5715 28.121 42.0125C28.9123 42.1934 29.7073 42.3551 30.5006 42.5256C30.8173 42.6034 31.1347 42.6815 31.4514 42.7593C31.9265 42.8547 32.3989 42.9782 32.8786 43.039C33.9478 43.1736 34.0181 43.1419 34.3977 42.1364C36.4894 36.595 38.5687 31.0496 40.6532 25.5055L40.6523 25.506Z" fill="#1D4648" stroke="#1D4648" stroke-width="0.25"/>
<path id="Vector_3" d="M40.0928 13.1018C40.1606 13.2274 40.2285 13.3523 40.297 13.4781C39.3177 13.1472 38.3376 12.816 37.3583 12.4851C37.382 12.3965 37.4057 12.3079 37.4297 12.2185L40.0928 13.1018Z" fill="#1D4648" stroke="#1D4648" stroke-width="0.25"/>
<path id="Vector_4" d="M37.4298 12.2185C37.4061 12.3072 37.3823 12.3958 37.3584 12.4851C36.8582 12.362 36.3574 12.238 35.8572 12.1148C35.9643 12.0314 36.0881 11.8621 36.1745 11.8798C36.5984 11.9654 37.0128 12.1013 37.4296 12.2193L37.4298 12.2185Z" fill="#1D4648" stroke="#1D4648" stroke-width="0.25"/>
<path id="Vector_5" d="M30.8422 20.9098C29.1282 20.4466 28.3667 18.8473 29.0351 17.1157C29.8099 15.1082 32.4452 14.1676 34.4047 15.1575C35.3649 15.6429 35.7098 16.4283 35.6531 17.391C35.4876 20.2174 32.6654 21.554 30.8424 20.909L30.8422 20.9098ZM30.6555 16.0153L30.6736 15.9742L30.6346 15.9513C29.6829 16.3301 29.0818 17.6896 29.3738 18.8026C29.6266 19.7665 30.5421 20.4393 31.5202 20.3813C33.1927 20.6092 34.8077 19.2332 34.8568 17.5389C34.8912 16.367 34.3417 15.6825 33.1926 15.6448C32.4269 15.6195 31.6573 15.7683 30.8889 15.8388C30.8114 15.8975 30.7339 15.9561 30.6555 16.0153Z" fill="#1D4648"/>
<path id="Vector_6" d="M24.8993 19.0939C24.6356 19.0489 24.3675 19.0207 24.1092 18.9554C20.7941 18.113 17.4787 17.269 14.1669 16.4144C13.8571 16.3345 13.5536 16.2017 13.2767 16.0435C13.1696 15.9821 13.0535 15.7174 13.0969 15.6589C13.1878 15.5385 13.3787 15.4409 13.535 15.4314C13.7146 15.4204 13.9024 15.5119 14.0861 15.5627C16.2356 16.1511 18.3925 16.712 20.5305 17.3378C21.8573 17.726 23.1567 18.2081 24.4653 18.6584C24.6322 18.7156 24.7778 18.8348 24.9328 18.9246L24.8993 19.0939Z" fill="#1D4648" stroke="#1D4648" stroke-width="0.25"/>
<path id="Vector_7" d="M32.4329 21.2804C32.4952 21.9831 32.5099 22.6941 32.6371 23.386C32.7041 23.7463 32.8938 24.2404 33.1682 24.3608C33.3912 24.4592 33.9191 24.1727 34.1421 23.9147C34.771 23.1885 35.3129 22.391 35.8862 21.6183C36.1135 21.3133 36.3328 21.0027 36.6321 20.5893C36.7334 22.2416 35.0032 24.8959 33.6358 25.4124C32.8793 25.6975 32.347 25.4306 32.0298 24.7663C31.7907 24.2649 31.6681 23.7114 31.4541 23.0584C29.9063 24.2571 28.3653 26.1296 26.2752 23.7544C25.9012 24.6204 25.5447 25.4477 25.1197 26.4325C25.2913 24.4828 25.6762 23.425 26.3394 22.9403C26.3773 22.9504 26.4304 22.9482 26.4524 22.9729C27.811 24.5153 28.7097 24.5416 30.206 23.0406C30.834 22.4115 31.4183 21.7402 32.024 21.0876C32.1606 21.1523 32.2963 21.2157 32.4329 21.2804Z" fill="#1D4648"/>
<path id="Vector_8" d="M23.7166 15.1349C22.6861 14.8588 21.7415 14.6407 20.8193 14.3508C19.1113 13.8145 17.4169 13.2367 15.7165 12.6783C15.5097 12.6104 15.2677 12.597 15.1016 12.4777C14.9382 12.36 14.8507 12.1395 14.7298 11.9639C14.934 11.8878 15.1705 11.7028 15.337 11.7529C16.4547 12.085 17.5595 12.4621 18.6648 12.8345C20.0785 13.3099 21.4877 13.7957 22.9004 14.2747C23.2658 14.3983 23.7007 14.44 23.7164 15.1356L23.7166 15.1349Z" fill="#1D4648" stroke="#1D4648" stroke-width="0.25"/>
<path id="Vector_9" d="M14.9001 13.79C15.2305 13.8785 15.5642 13.9578 15.891 14.057C17.076 14.4189 18.2631 14.7759 19.438 15.1694C19.6096 15.227 19.7175 15.4716 19.8552 15.6292C19.6654 15.6749 19.4487 15.8037 19.2904 15.7527C17.8811 15.2996 16.4794 14.8212 15.0822 14.3285C14.9504 14.2823 14.8709 14.0912 14.7669 13.9676C14.8115 13.9079 14.8552 13.848 14.8998 13.7883L14.9001 13.79Z" fill="#1D4648" stroke="#1D4648" stroke-width="0.25"/>
<path id="Vector_10" d="M20.655 19.7902C22.0026 20.1513 23.3514 20.5081 24.6951 20.8837C24.7821 20.9078 24.8923 21.0852 24.8773 21.1707C24.8629 21.251 24.6766 21.3786 24.6005 21.3582C23.2733 20.9917 21.9503 20.6068 20.6298 20.2156C20.588 20.2029 20.5792 20.079 20.5543 20.0062C20.5879 19.9342 20.6214 19.8622 20.6542 19.79L20.655 19.7902Z" fill="#1D4648" stroke="#1D4648" stroke-width="0.25"/>
<path id="Vector_11" d="M15.3408 10.5634C16.2107 10.3597 18.3871 11.09 18.986 11.8236C18.2325 11.7618 17.6322 11.5745 17.0602 11.3613C16.5027 11.1535 15.7661 11.2886 15.3408 10.5634Z" fill="#1D4648" stroke="#1D4648" stroke-width="0.25"/>
<path id="Vector_12" d="M39.0488 20.0854C39.439 21.0417 39.8285 21.9979 40.2188 22.9542C40.1794 22.995 40.1401 23.0351 40.1006 23.0759C39.5163 22.7964 38.9319 22.5175 38.3391 22.2341L38.9114 20.0984L39.0486 20.0861L39.0488 20.0854Z" fill="#1D4648" stroke="#1D4648" stroke-width="0.25"/>
<path id="Vector_13" d="M37.653 24.8229L38.1396 23.0068C38.7132 23.3147 39.2506 23.6035 39.7881 23.8923L39.8025 24.069C39.1143 24.3105 38.4253 24.5518 37.654 24.8224L37.653 24.8229Z" fill="#1D4648" stroke="#1D4648" stroke-width="0.25"/>
<path id="Vector_14" d="M3.47545 34.3178C3.77763 34.2517 4.08054 34.1857 4.38271 34.1195C4.40441 34.207 4.46423 34.3593 4.44088 34.3725C3.92343 34.6715 3.39653 34.9554 2.87201 35.2423C3.0734 34.9342 3.27406 34.6259 3.47545 34.3178Z" fill="#1D4648" stroke="#1D4648" stroke-width="0.25"/>
<path id="Vector_15" d="M30.8884 15.8396C31.656 15.7689 32.4264 15.6202 33.1921 15.6455C34.3411 15.6832 34.8906 16.3677 34.8563 17.5396C34.8071 19.2339 33.1922 20.6099 31.5196 20.3821C31.1692 20.2025 30.7879 20.0645 30.4753 19.8352C29.6598 19.2359 29.4523 17.9377 29.9896 17.0173C30.1989 16.6592 30.4192 16.3071 30.634 15.952L30.673 15.9749L30.6549 16.016C30.7324 15.9574 30.8099 15.8987 30.8884 15.8396Z" fill="#1D4648"/>
<path id="Vector_16" d="M8.00081 33.3149C9.38996 32.5521 10.742 31.7135 12.1765 31.0434C14.2588 30.0713 16.3788 29.1688 18.5267 28.3449C19.4429 27.9937 20.4686 27.9006 21.4776 28.4218C18.504 29.1123 15.6063 29.9443 12.9926 31.5066C12.7442 31.6 12.4959 31.6933 12.2485 31.7869C11.5294 32.1806 10.8092 32.5739 10.0901 32.9676C9.73823 33.1575 9.38536 33.3473 9.03373 33.5363C8.76609 33.6976 8.4972 33.8597 8.22957 34.021C7.72413 34.2085 7.21922 34.3941 6.71405 34.5806C7.14306 34.1584 7.57306 33.7364 8.0018 33.3152L8.00081 33.3149Z" fill="#1D4648"/>
<path id="Vector_17" d="M29.0519 40.6371C29.1876 40.9937 29.371 41.3425 29.4383 41.7106C29.4684 41.8771 29.264 42.0818 29.166 42.269C29.0078 42.1704 28.8497 42.0718 28.6926 41.9735C28.5323 41.6171 28.3733 41.26 28.213 40.9036C27.4719 39.6455 26.7297 38.387 25.9886 37.1289L22.7002 31.8316L22.18 30.9437C22.1273 30.8527 22.0746 30.7616 22.0211 30.6692L22.1133 30.2118C22.3178 30.3596 22.5238 30.5066 22.7283 30.6544C23.0792 31.2237 23.4302 31.793 23.7811 32.3623C23.9637 32.5834 24.1465 32.8034 24.3302 33.0248C24.6814 33.5976 25.0325 34.1704 25.3834 34.7443C25.5684 34.9695 25.7531 35.1957 25.9381 35.421L26.9875 37.1371C27.2846 37.5542 27.5825 37.9727 27.8796 38.3898C28.2179 38.9672 28.5547 39.5453 28.893 40.1227C28.9463 40.2942 28.9994 40.4669 29.0527 40.6384L29.0519 40.6371Z" fill="#1D4648"/>
<path id="Vector_18" d="M8.6148 33.3538C8.74378 33.3307 8.8737 33.3071 9.00268 33.2841C8.93237 33.3306 8.86225 33.3765 8.79194 33.423C8.73307 33.4003 8.67347 33.3773 8.6146 33.3545L8.6148 33.3538Z" fill="#1D4648" stroke="#1D4648" stroke-width="0.25"/>
<path id="Vector_19" d="M8.19771 33.742C8.21083 33.6871 8.22321 33.632 8.23633 33.5771C8.22321 33.632 8.21083 33.6871 8.19771 33.742Z" fill="#1D4648" stroke="#1D4648" stroke-width="0.25"/>
<path id="Vector_20" d="M26.1039 33.7219C26.1573 33.7354 26.21 33.7488 26.2634 33.7623L26.2228 33.9227C26.1838 33.8554 26.1448 33.7881 26.1058 33.7208L26.1039 33.7219Z" fill="#1D4648" stroke="#1D4648" stroke-width="0.25"/>
<path id="Vector_21" d="M25.992 33.5221C25.9245 33.4845 25.8576 33.4471 25.79 33.4095C25.855 33.448 25.9205 33.4873 25.9855 33.5258L25.992 33.5221Z" fill="#1D4648" stroke="#1D4648" stroke-width="0.25"/>
<path id="Vector_22" d="M26.1054 33.7208C26.0677 33.6547 26.0292 33.5883 25.9915 33.5221L25.985 33.5258L26.1036 33.7219L26.1054 33.7208Z" fill="#1D4648" stroke="#1D4648" stroke-width="0.25"/>
</g>
<defs>
<clipPath id="clip0_1795_589">
<rect width="36" height="36.8571" fill="white" transform="translate(10.3828 0.466309) rotate(15)"/>
</clipPath>
</defs>
</svg>
