<svg width="48" height="48" viewBox="0 0 48 48" fill="none" xmlns="http://www.w3.org/2000/svg">
<g clip-path="url(#clip0_2145_5576)">
<path d="M36.2388 13.4519C35.8633 13.3926 35.4838 13.354 35.1133 13.2703C31.8048 12.5216 28.5041 11.7321 25.188 11.0203C21.8509 10.3045 18.4982 9.66461 15.0318 8.96703C14.7383 10.0625 14.4334 11.1207 14.1725 12.189C13.5659 14.6776 12.9927 17.1744 12.3741 19.6605C12.2577 20.1276 12.3788 20.4326 12.6461 20.8219C13.4675 22.0199 14.5327 22.5926 16.0085 22.8596C18.6745 23.3419 21.2911 24.1061 23.9252 24.7636C24.2112 24.8348 24.4915 24.9566 24.7508 25.0977C24.8648 25.1602 24.9173 25.3308 24.9981 25.4521C24.8509 25.5372 24.7103 25.6716 24.5534 25.6926C24.4079 25.712 24.2457 25.6078 24.0888 25.5635C20.9787 24.6865 17.8679 23.8094 14.757 22.9353C14.7126 22.9234 14.6599 22.9397 14.3893 22.9559C16.1493 24.7145 17.8076 26.3704 19.4981 28.0597C22.0832 26.9928 24.4611 26.8887 26.1724 29.7601C28.542 29.1781 30.8945 28.6336 33.226 28.0164C34.6289 27.6449 36.0042 27.1725 37.3809 26.7153C37.5975 26.6433 37.8716 26.4482 37.9303 26.2529C39.0688 22.5007 40.1796 18.7395 41.2955 14.9797C41.2278 14.8541 41.1598 14.7293 41.0913 14.6035L41.7152 14.7706C41.3464 16.1472 41.0175 17.5135 40.6066 18.8547C40.3766 19.6067 40.3438 20.2823 40.769 20.9841C41.0167 21.3931 41.132 21.8763 41.3547 22.3019C42.1645 23.8511 42.443 25.4463 41.9017 27.1294C41.8182 27.0891 41.7349 27.0481 41.6515 27.0078C41.7256 26.6454 41.8005 26.2832 41.873 25.9297C41.2405 26.2203 40.7095 26.5491 40.1301 26.7154C37.3682 27.5077 34.6006 28.2859 31.8184 29.0088C30.0965 29.4561 28.3453 29.7942 26.5227 30.2005C26.6356 30.3436 26.7119 30.4225 26.7675 30.5137C29.1462 34.4577 31.5255 38.4019 33.8939 42.3518C34.0319 42.5819 34.0815 42.8638 34.1727 43.121C34.1256 43.1341 34.0787 43.1464 34.0316 43.1595C33.891 42.9716 33.7497 42.7834 33.6089 42.5962L33.2435 42.0055C32.9268 41.5313 32.6109 41.0574 32.2945 40.5825C32.1713 40.386 32.049 40.1889 31.9257 39.9924C31.6091 39.5183 31.2924 39.0441 30.9751 38.5698L30.724 38.1763L29.7972 36.753C29.629 36.4907 29.4601 36.2283 29.2917 35.9667L28.2917 34.3494C28.0717 34.0203 27.8517 33.6912 27.6317 33.3621C27.3765 32.9542 27.1213 32.5464 26.8664 32.1378C26.6833 31.8747 26.5012 31.611 26.3182 31.3478C26.182 31.1346 26.0466 30.9216 25.9104 30.7083C25.7614 30.5135 25.6133 30.3181 25.4642 30.1232C24.4521 28.5011 23.3096 28.0252 21.3332 28.402C20.973 28.5016 20.5936 28.5604 20.2551 28.7087C17.4976 29.9194 14.7483 31.1464 11.9963 32.3687C11.5274 32.6168 11.0592 32.865 10.5904 33.1124C10.1969 33.3301 9.80345 33.5478 9.40998 33.7654C8.39155 34.293 7.37511 34.8249 6.35253 35.3443C6.15264 35.4457 5.92027 35.7688 5.71404 35.332C9.95077 32.6786 14.3056 30.2351 18.8669 28.2714C15.3482 24.5668 11.875 20.9111 8.35699 17.2068C8.1966 17.8054 8.02322 18.3608 7.89995 18.9273C7.32162 21.5854 6.77398 24.2501 6.18381 26.9051C5.70929 29.0397 5.18223 31.1634 4.69051 33.2943C4.5294 33.9931 4.39047 34.6979 4.27544 35.4051C4.25495 35.5289 4.4036 35.6809 4.4749 35.8199C4.2735 36.1279 4.07284 36.4362 3.87145 36.7443C3.83891 36.7948 3.80544 36.8457 3.77291 36.8962C3.67042 36.9505 3.56718 37.0046 3.46489 37.0581L3.73963 37.2688C3.74402 37.3175 3.74747 37.3667 3.75112 37.4151C3.67634 37.4488 3.60155 37.4825 3.52676 37.5162C3.09456 37.2929 2.88587 36.9334 2.95574 36.4686C3.19191 34.8953 3.36451 33.3049 3.7181 31.7576C4.61567 27.8342 5.58094 23.9242 6.55636 20.0178C6.86563 18.7778 7.20393 17.5301 7.69964 16.3572C7.97626 15.7033 8.51647 15.0858 9.09044 14.644C10.4041 13.6327 11.7974 12.7174 13.19 11.8106C13.5845 11.5535 13.8244 11.2853 13.8764 10.825C13.9661 10.0378 14.0941 9.25534 14.1783 8.46815C14.2256 8.02846 14.4814 7.94597 14.8539 8.01073C15.9206 8.19611 17.0024 8.32483 18.0486 8.59269C18.9279 8.81816 19.7056 8.77506 20.5571 8.45354C22.6982 7.64524 24.9036 7.04337 27.1883 6.72203C29.2202 6.4365 30.9036 7.09699 32.3805 8.43638C33.8874 9.80251 35.1263 11.3857 36.2375 13.0693C36.2967 13.1591 36.2403 13.3223 36.2383 13.451L36.2388 13.4519ZM35.2097 12.7923L35.3245 12.6892C34.6022 11.7272 33.9365 10.7165 33.1433 9.8149C32.0732 8.59852 30.7348 7.65285 29.0703 7.59615C26.3215 7.50272 23.7239 8.31171 21.1407 9.22656C25.8303 10.4154 30.5201 11.6035 35.2097 12.7923ZM13.6587 12.211C11.759 13.0116 9.44009 14.7229 9.2151 15.4443C10.3561 15.5593 11.504 15.6753 12.6983 15.7952L13.6589 12.2103L13.6587 12.211ZM11.651 19.5913L12.4121 16.751C11.3029 16.6476 10.2616 16.5508 9.06025 16.4391C9.99361 17.5745 10.7907 18.5441 11.651 19.5913ZM40.0487 21.5876L39.9115 21.5999L39.3392 23.7356C39.932 24.019 40.5163 24.2986 41.1008 24.5774C41.1402 24.5366 41.1795 24.4965 41.2189 24.4557C40.8287 23.4994 40.4391 22.5432 40.0489 21.5869L40.0487 21.5876ZM38.6533 26.3252C39.4253 26.0548 40.1136 25.8133 40.8018 25.5718L40.7874 25.3951C40.2499 25.1063 39.7125 24.8174 39.139 24.5096L38.6523 26.3257L38.6533 26.3252Z" fill="#1E1E1E" stroke="#1E1E1E" stroke-width="0.25"/>
<path d="M41.6523 27.0089C41.7358 27.0492 41.8191 27.0902 41.9026 27.1305C41.3265 29.1562 40.8123 31.2024 40.1603 33.2039C38.9047 37.0562 37.5762 40.8844 36.2659 44.7191C35.972 45.5793 35.3692 45.8421 34.441 45.6689C24.7934 43.8733 15.3658 41.1736 5.89796 38.6476C5.06613 38.4255 4.31528 37.9012 3.52666 37.5178C3.60145 37.4841 3.67623 37.4504 3.75102 37.4168C4.20046 37.5964 4.63605 37.8306 5.10168 37.9468C7.65503 38.5835 10.2101 39.2136 12.7741 39.8049C16.2887 40.6151 19.8128 41.3841 23.3314 42.1798C25.2633 42.6165 27.1902 43.0744 29.121 43.5154C29.9123 43.6963 30.7073 43.858 31.5006 44.0285C31.8173 44.1063 32.1347 44.1844 32.4514 44.2622C32.9265 44.3576 33.3989 44.4811 33.8786 44.5419C34.9478 44.6765 35.0181 44.6448 35.3977 43.6393C37.4894 38.0979 39.5687 32.5525 41.6532 27.0084L41.6523 27.0089Z" fill="#1E1E1E" stroke="#1E1E1E" stroke-width="0.25"/>
<path d="M41.0928 14.6048C41.1606 14.7304 41.2285 14.8552 41.297 14.981C40.3177 14.6501 39.3376 14.319 38.3583 13.988C38.382 13.8994 38.4057 13.8108 38.4297 13.7214L41.0928 14.6048Z" fill="#1E1E1E" stroke="#1E1E1E" stroke-width="0.25"/>
<path d="M38.4298 13.7214C38.4061 13.8101 38.3823 13.8987 38.3584 13.988C37.8582 13.8649 37.3574 13.7408 36.8572 13.6177C36.9643 13.5343 37.0881 13.365 37.1745 13.3827C37.5984 13.4683 38.0128 13.6042 38.4296 13.7222L38.4298 13.7214Z" fill="#1E1E1E" stroke="#1E1E1E" stroke-width="0.25"/>
<path d="M31.8422 22.4126C30.1282 21.9495 29.3667 20.3502 30.0351 18.6186C30.8099 16.6111 33.4452 15.6705 35.4047 16.6604C36.3649 17.1458 36.7098 17.9312 36.6531 18.8939C36.4876 21.7202 33.6654 23.0569 31.8424 22.4119L31.8422 22.4126ZM31.6555 17.5182L31.6736 17.4771L31.6346 17.4542C30.6829 17.833 30.0818 19.1925 30.3738 20.3055C30.6266 21.2694 31.5421 21.9421 32.5202 21.8842C34.1927 22.112 35.8077 20.7361 35.8568 19.0418C35.8912 17.8699 35.3417 17.1854 34.1926 17.1477C33.4269 17.1224 32.6573 17.2712 31.8889 17.3417C31.8114 17.4004 31.7339 17.459 31.6555 17.5182Z" fill="#1E1E1E"/>
<path d="M25.8993 20.5968C25.6356 20.5518 25.3675 20.5236 25.1092 20.4583C21.7941 19.6159 18.4787 18.7719 15.1669 17.9173C14.8571 17.8374 14.5536 17.7046 14.2767 17.5464C14.1696 17.485 14.0535 17.2203 14.0969 17.1618C14.1878 17.0414 14.3787 16.9438 14.535 16.9343C14.7146 16.9233 14.9024 17.0148 15.0861 17.0656C17.2356 17.654 19.3925 18.2149 21.5305 18.8407C22.8573 19.2289 24.1567 19.711 25.4653 20.1613C25.6322 20.2185 25.7778 20.3377 25.9328 20.4275L25.8993 20.5968Z" fill="#1E1E1E" stroke="#1E1E1E" stroke-width="0.25"/>
<path d="M33.4329 22.7833C33.4952 23.486 33.5099 24.197 33.6371 24.8889C33.7041 25.2492 33.8938 25.7433 34.1682 25.8637C34.3912 25.9621 34.9191 25.6756 35.1421 25.4176C35.771 24.6914 36.3129 23.8939 36.8862 23.1212C37.1135 22.8162 37.3328 22.5056 37.6321 22.0922C37.7334 23.7445 36.0032 26.3988 34.6358 26.9153C33.8793 27.2004 33.347 26.9335 33.0298 26.2692C32.7907 25.7678 32.6681 25.2143 32.4541 24.5613C30.9063 25.76 29.3653 27.6325 27.2752 25.2573C26.9012 26.1233 26.5447 26.9506 26.1197 27.9354C26.2913 25.9857 26.6762 24.9279 27.3394 24.4432C27.3773 24.4533 27.4304 24.4511 27.4524 24.4758C28.811 26.0182 29.7097 26.0445 31.206 24.5435C31.834 23.9144 32.4183 23.2431 33.024 22.5905C33.1606 22.6552 33.2963 22.7186 33.4329 22.7833Z" fill="#1E1E1E"/>
<path d="M24.7166 16.6377C23.6861 16.3616 22.7415 16.1436 21.8193 15.8536C20.1113 15.3174 18.4169 14.7395 16.7165 14.1811C16.5097 14.1133 16.2677 14.0998 16.1016 13.9806C15.9382 13.8628 15.8507 13.6424 15.7298 13.4667C15.934 13.3906 16.1705 13.2056 16.337 13.2557C17.4547 13.5879 18.5595 13.9649 19.6648 14.3374C21.0785 14.8127 22.4877 15.2985 23.9004 15.7775C24.2658 15.9011 24.7007 15.9429 24.7164 16.6385L24.7166 16.6377Z" fill="#1E1E1E" stroke="#1E1E1E" stroke-width="0.25"/>
<path d="M15.9001 15.2929C16.2305 15.3814 16.5642 15.4607 16.891 15.56C18.076 15.9219 19.2631 16.2789 20.438 16.6723C20.6096 16.73 20.7175 16.9746 20.8552 17.1321C20.6654 17.1778 20.4487 17.3066 20.2904 17.2557C18.8811 16.8025 17.4794 16.3241 16.0822 15.8314C15.9504 15.7852 15.8709 15.5942 15.7669 15.4705C15.8115 15.4108 15.8552 15.3509 15.8998 15.2912L15.9001 15.2929Z" fill="#1E1E1E" stroke="#1E1E1E" stroke-width="0.25"/>
<path d="M21.655 21.2932C23.0026 21.6543 24.3514 22.011 25.6951 22.3866C25.7821 22.4107 25.8923 22.5882 25.8773 22.6737C25.8629 22.7539 25.6766 22.8815 25.6005 22.8611C24.2733 22.4946 22.9503 22.1098 21.6298 21.7186C21.588 21.7058 21.5792 21.582 21.5543 21.5092C21.5879 21.4372 21.6214 21.3652 21.6542 21.293L21.655 21.2932Z" fill="#1E1E1E" stroke="#1E1E1E" stroke-width="0.25"/>
<path d="M16.3408 12.0663C17.2107 11.8626 19.3871 12.593 19.986 13.3265C19.2325 13.2647 18.6322 13.0774 18.0602 12.8642C17.5027 12.6564 16.7661 12.7915 16.3408 12.0663Z" fill="#1E1E1E" stroke="#1E1E1E" stroke-width="0.25"/>
<path d="M40.0488 21.5883C40.439 22.5446 40.8285 23.5008 41.2188 24.4571C41.1794 24.498 41.1401 24.538 41.1006 24.5789C40.5163 24.2993 39.9319 24.0204 39.3391 23.737L39.9114 21.6013L40.0486 21.589L40.0488 21.5883Z" fill="#1E1E1E" stroke="#1E1E1E" stroke-width="0.25"/>
<path d="M38.653 26.3259L39.1396 24.5098C39.7132 24.8176 40.2506 25.1064 40.7881 25.3953L40.8025 25.572C40.1143 25.8135 39.4253 26.0547 38.654 26.3253L38.653 26.3259Z" fill="#1E1E1E" stroke="#1E1E1E" stroke-width="0.25"/>
<path d="M4.47545 35.8208C4.77763 35.7546 5.08054 35.6886 5.38271 35.6224C5.40441 35.71 5.46423 35.8623 5.44088 35.8755C4.92343 36.1744 4.39653 36.4583 3.87201 36.7452C4.0734 36.4371 4.27406 36.1289 4.47545 35.8208Z" fill="#1E1E1E" stroke="#1E1E1E" stroke-width="0.25"/>
<path d="M31.8884 17.3425C32.656 17.2718 33.4264 17.1231 34.1921 17.1484C35.3411 17.1861 35.8906 17.8706 35.8563 19.0425C35.8071 20.7368 34.1922 22.1128 32.5196 21.885C32.1692 21.7054 31.7879 21.5674 31.4753 21.3381C30.6598 20.7388 30.4523 19.4406 30.9896 18.5202C31.1989 18.1621 31.4192 17.81 31.634 17.4549L31.673 17.4778L31.6549 17.5189C31.7324 17.4603 31.8099 17.4016 31.8884 17.3425Z" fill="#1E1E1E"/>
<path d="M9.00081 34.8178C10.39 34.055 11.742 33.2165 13.1765 32.5463C15.2588 31.5742 17.3788 30.6718 19.5267 29.8479C20.4429 29.4966 21.4686 29.4036 22.4776 29.9247C19.504 30.6152 16.6063 31.4472 13.9926 33.0095C13.7442 33.1029 13.4959 33.1963 13.2485 33.2899C12.5294 33.6835 11.8092 34.0769 11.0901 34.4705C10.7382 34.6605 10.3854 34.8502 10.0337 35.0392C9.76609 35.2006 9.4972 35.3626 9.22957 35.524C8.72413 35.7115 8.21922 35.897 7.71405 36.0836C8.14306 35.6613 8.57306 35.2394 9.0018 34.8181L9.00081 34.8178Z" fill="#1E1E1E"/>
<path d="M30.0519 42.14C30.1876 42.4967 30.371 42.8454 30.4383 43.2136C30.4684 43.3801 30.264 43.5847 30.166 43.772C30.0078 43.6734 29.8497 43.5747 29.6926 43.4764C29.5323 43.1201 29.3733 42.7629 29.213 42.4066C28.4719 41.1484 27.7297 39.89 26.9886 38.6318L23.7002 33.3345L23.18 32.4467C23.1273 32.3556 23.0746 32.2646 23.0211 32.1722L23.1133 31.7148C23.3178 31.8625 23.5238 32.0096 23.7283 32.1574C24.0792 32.7266 24.4302 33.2959 24.7811 33.8652C24.9637 34.0863 25.1465 34.3064 25.3302 34.5278C25.6814 35.1006 26.0325 35.6734 26.3834 36.2472C26.5684 36.4724 26.7531 36.6987 26.9381 36.9239L27.9875 38.6401C28.2846 39.0572 28.5825 39.4756 28.8796 39.8927C29.2179 40.4701 29.5547 41.0483 29.893 41.6256C29.9463 41.7972 29.9994 41.9698 30.0527 42.1414L30.0519 42.14Z" fill="#1E1E1E"/>
<path d="M9.6148 34.8567C9.74378 34.8336 9.8737 34.8101 10.0027 34.787C9.93237 34.8336 9.86225 34.8794 9.79194 34.926C9.73307 34.9032 9.67347 34.8802 9.6146 34.8574L9.6148 34.8567Z" fill="#1E1E1E" stroke="#1E1E1E" stroke-width="0.25"/>
<path d="M9.19771 35.2449C9.21083 35.19 9.22321 35.1349 9.23633 35.08C9.22321 35.1349 9.21083 35.19 9.19771 35.2449Z" fill="#1E1E1E" stroke="#1E1E1E" stroke-width="0.25"/>
<path d="M27.1039 35.2248C27.1573 35.2383 27.21 35.2516 27.2634 35.2652L27.2228 35.4256C27.1838 35.3583 27.1448 35.291 27.1058 35.2237L27.1039 35.2248Z" fill="#1E1E1E" stroke="#1E1E1E" stroke-width="0.25"/>
<path d="M26.992 35.025C26.9245 34.9874 26.8576 34.95 26.79 34.9125C26.855 34.9509 26.9205 34.9903 26.9855 35.0287L26.992 35.025Z" fill="#1E1E1E" stroke="#1E1E1E" stroke-width="0.25"/>
<path d="M27.1054 35.2237C27.0677 35.1575 27.0292 35.0912 26.9915 35.025L26.985 35.0287L27.1036 35.2248L27.1054 35.2237Z" fill="#1E1E1E" stroke="#1E1E1E" stroke-width="0.25"/>
</g>
<defs>
<clipPath id="clip0_2145_5576">
<rect width="36" height="36.8571" fill="white" transform="translate(11.3828 1.96921) rotate(15)"/>
</clipPath>
</defs>
</svg>
