<svg width="46" height="46" viewBox="0 0 46 46" fill="none" xmlns="http://www.w3.org/2000/svg">
<rect width="46" height="46" fill="#CACACA"/>
<g id="Not sure">
<path d="M-625 -219C-625 -220.105 -624.105 -221 -623 -221H1182C1183.1 -221 1184 -220.105 1184 -219V855C1184 856.104 1183.1 857 1182 857H-623C-624.105 857 -625 856.105 -625 855V-219Z" fill="#E5E5E5"/>
<path d="M-623 -220H1182V-222H-623V-220ZM1183 -219V855H1185V-219H1183ZM1182 856H-623V858H1182V856ZM-624 855V-219H-626V855H-624ZM-623 856C-623.552 856 -624 855.552 -624 855H-626C-626 856.657 -624.657 858 -623 858V856ZM1183 855C1183 855.552 1182.55 856 1182 856V858C1183.66 858 1185 856.657 1185 855H1183ZM1182 -220C1182.55 -220 1183 -219.552 1183 -219H1185C1185 -220.657 1183.66 -222 1182 -222V-220ZM-623 -222C-624.657 -222 -626 -220.657 -626 -219H-624C-624 -219.552 -623.552 -220 -623 -220V-222Z" fill="black" fill-opacity="0.1"/>
<g id="RSVP">
<rect x="-136.5" y="-136.5" width="319" height="817" fill="#F1BFBE"/>
<rect x="-136.5" y="-136.5" width="319" height="817" fill="white" fill-opacity="0.9"/>
<rect x="-136.5" y="-136.5" width="319" height="817" stroke="#F9FAFB"/>
<g id="Cards and post">
<g id="icons-sidebar">
<g id="Frame" clip-path="url(#clip0_1153_64864)">
<path id="Vector" d="M35.2388 12.4519C34.8633 12.3926 34.4838 12.354 34.1133 12.2703C30.8048 11.5216 27.5041 10.7321 24.188 10.0203C20.8509 9.30447 17.4982 8.66461 14.0318 7.96703C13.7383 9.0625 13.4334 10.1207 13.1725 11.189C12.5659 13.6776 11.9927 16.1744 11.3741 18.6605C11.2577 19.1276 11.3788 19.4326 11.6461 19.8219C12.4675 21.0199 13.5327 21.5926 15.0085 21.8596C17.6745 22.3419 20.2911 23.1061 22.9252 23.7636C23.2112 23.8348 23.4915 23.9566 23.7508 24.0977C23.8648 24.1602 23.9173 24.3308 23.9981 24.4521C23.8509 24.5372 23.7103 24.6716 23.5534 24.6926C23.4079 24.712 23.2457 24.6078 23.0888 24.5635C19.9787 23.6865 16.8679 22.8094 13.757 21.9353C13.7126 21.9234 13.6599 21.9397 13.3893 21.9559C15.1493 23.7145 16.8076 25.3704 18.4981 27.0597C21.0832 25.9928 23.4611 25.8887 25.1724 28.7601C27.542 28.1781 29.8945 27.6336 32.226 27.0164C33.6289 26.6449 35.0042 26.1725 36.3809 25.7153C36.5975 25.6433 36.8716 25.4482 36.9303 25.2529C38.0688 21.5007 39.1796 17.7395 40.2955 13.9797C40.2278 13.8541 40.1598 13.7293 40.0913 13.6035L40.7152 13.7706C40.3464 15.1472 40.0175 16.5135 39.6066 17.8547C39.3766 18.6067 39.3438 19.2823 39.769 19.9841C40.0167 20.3931 40.132 20.8763 40.3547 21.3019C41.1645 22.8511 41.443 24.4463 40.9017 26.1294C40.8182 26.0891 40.7349 26.0481 40.6515 26.0078C40.7256 25.6454 40.8005 25.2832 40.873 24.9297C40.2405 25.2203 39.7095 25.5491 39.1301 25.7154C36.3682 26.5077 33.6006 27.2859 30.8184 28.0088C29.0965 28.4561 27.3453 28.7942 25.5227 29.2005C25.6356 29.3436 25.7119 29.4225 25.7675 29.5137C28.1462 33.4577 30.5255 37.4019 32.8939 41.3518C33.0319 41.5819 33.0815 41.8638 33.1727 42.121C33.1256 42.1341 33.0787 42.1464 33.0316 42.1595C32.891 41.9716 32.7497 41.7834 32.6089 41.5962L32.2435 41.0055C31.9268 40.5313 31.6109 40.0574 31.2945 39.5825C31.1713 39.386 31.049 39.1889 30.9257 38.9924C30.6091 38.5183 30.2924 38.0441 29.9751 37.5698L29.724 37.1763L28.7972 35.753C28.629 35.4907 28.4601 35.2283 28.2917 34.9667L27.2917 33.3494C27.0717 33.0203 26.8517 32.6912 26.6317 32.3621C26.3765 31.9542 26.1213 31.5464 25.8664 31.1378C25.6833 30.8747 25.5012 30.611 25.3182 30.3478C25.182 30.1346 25.0466 29.9216 24.9104 29.7083C24.7614 29.5135 24.6133 29.3181 24.4642 29.1232C23.4521 27.5011 22.3096 27.0252 20.3332 27.402C19.973 27.5016 19.5936 27.5604 19.2551 27.7087C16.4976 28.9194 13.7483 30.1464 10.9963 31.3687C10.5274 31.6168 10.0592 31.865 9.5904 32.1124C9.19692 32.3301 8.80345 32.5478 8.40998 32.7654C7.39155 33.293 6.37511 33.8249 5.35253 34.3443C5.15264 34.4457 4.92027 34.7688 4.71404 34.332C8.95077 31.6786 13.3056 29.2351 17.8669 27.2714C14.3482 23.5668 10.875 19.9111 7.35699 16.2068C7.1966 16.8054 7.02322 17.3608 6.89995 17.9273C6.32162 20.5854 5.77398 23.2501 5.18381 25.9051C4.70929 28.0397 4.18223 30.1634 3.69051 32.2943C3.5294 32.9931 3.39047 33.6979 3.27544 34.4051C3.25495 34.5289 3.4036 34.6809 3.4749 34.8199C3.2735 35.1279 3.07284 35.4362 2.87145 35.7443C2.83891 35.7948 2.80544 35.8457 2.77291 35.8962C2.67042 35.9505 2.56718 36.0046 2.46489 36.0581L2.73963 36.2688C2.74402 36.3175 2.74747 36.3667 2.75112 36.4151C2.67634 36.4488 2.60155 36.4825 2.52676 36.5162C2.09456 36.2929 1.88587 35.9334 1.95574 35.4686C2.19191 33.8953 2.36451 32.3049 2.7181 30.7576C3.61567 26.8342 4.58094 22.9242 5.55636 19.0178C5.86563 17.7778 6.20393 16.5301 6.69964 15.3572C6.97626 14.7033 7.51647 14.0858 8.09044 13.644C9.40409 12.6327 10.7974 11.7174 12.19 10.8106C12.5845 10.5535 12.8244 10.2853 12.8764 9.82503C12.9661 9.03778 13.0941 8.25534 13.1783 7.46815C13.2256 7.02846 13.4814 6.94597 13.8539 7.01073C14.9206 7.19611 16.0024 7.32483 17.0486 7.59269C17.9279 7.81816 18.7056 7.77506 19.5571 7.45354C21.6982 6.64524 23.9036 6.04337 26.1883 5.72203C28.2202 5.4365 29.9036 6.09699 31.3805 7.43638C32.8874 8.80251 34.1263 10.3857 35.2375 12.0693C35.2967 12.1591 35.2403 12.3223 35.2383 12.451L35.2388 12.4519ZM34.2097 11.7923L34.3245 11.6892C33.6022 10.7272 32.9365 9.71648 32.1433 8.8149C31.0732 7.59852 29.7348 6.65285 28.0703 6.59615C25.3215 6.50272 22.7239 7.31171 20.1407 8.22656C24.8303 9.41539 29.5201 10.6035 34.2097 11.7923ZM12.6587 11.211C10.759 12.0116 8.44009 13.7229 8.2151 14.4443C9.35611 14.5593 10.504 14.6753 11.6983 14.7952L12.6589 11.2103L12.6587 11.211ZM10.651 18.5913L11.4121 15.751C10.3029 15.6476 9.26157 15.5508 8.06025 15.4391C8.99361 16.5745 9.79074 17.5441 10.651 18.5913ZM39.0487 20.5876L38.9115 20.5999L38.3392 22.7356C38.932 23.019 39.5163 23.2986 40.1008 23.5774C40.1402 23.5366 40.1795 23.4965 40.2189 23.4557C39.8287 22.4994 39.4391 21.5432 39.0489 20.5869L39.0487 20.5876ZM37.6533 25.3252C38.4253 25.0548 39.1136 24.8133 39.8018 24.5718L39.7874 24.3951C39.2499 24.1063 38.7125 23.8174 38.139 23.5096L37.6523 25.3257L37.6533 25.3252Z" fill="#1E1E1E" stroke="#1E1E1E" stroke-width="0.25"/>
<path id="Vector_2" d="M40.6523 26.0089C40.7358 26.0492 40.8191 26.0902 40.9026 26.1305C40.3265 28.1562 39.8123 30.2024 39.1603 32.2039C37.9047 36.0562 36.5762 39.8844 35.2659 43.7191C34.972 44.5793 34.3692 44.8421 33.441 44.6689C23.7934 42.8733 14.3658 40.1736 4.89796 37.6476C4.06613 37.4255 3.31528 36.9012 2.52666 36.5178C2.60145 36.4841 2.67623 36.4504 2.75102 36.4168C3.20046 36.5964 3.63605 36.8306 4.10168 36.9468C6.65503 37.5835 9.21012 38.2136 11.7741 38.8049C15.2887 39.6151 18.8128 40.3841 22.3314 41.1798C24.2633 41.6165 26.1902 42.0744 28.121 42.5154C28.9123 42.6963 29.7073 42.858 30.5006 43.0285C30.8173 43.1063 31.1347 43.1844 31.4514 43.2622C31.9265 43.3576 32.3989 43.4811 32.8786 43.5419C33.9478 43.6765 34.0181 43.6448 34.3977 42.6393C36.4894 37.0979 38.5687 31.5525 40.6532 26.0084L40.6523 26.0089Z" fill="#1E1E1E" stroke="#1E1E1E" stroke-width="0.25"/>
<path id="Vector_3" d="M40.0928 13.6048C40.1606 13.7304 40.2285 13.8552 40.297 13.981C39.3177 13.6501 38.3376 13.319 37.3583 12.988C37.382 12.8994 37.4057 12.8108 37.4297 12.7214L40.0928 13.6048Z" fill="#1E1E1E" stroke="#1E1E1E" stroke-width="0.25"/>
<path id="Vector_4" d="M37.4298 12.7214C37.4061 12.8101 37.3823 12.8987 37.3584 12.988C36.8582 12.8649 36.3574 12.7408 35.8572 12.6177C35.9643 12.5343 36.0881 12.365 36.1745 12.3827C36.5984 12.4683 37.0128 12.6042 37.4296 12.7222L37.4298 12.7214Z" fill="#1E1E1E" stroke="#1E1E1E" stroke-width="0.25"/>
<path id="Vector_5" d="M30.8422 21.4126C29.1282 20.9495 28.3667 19.3502 29.0351 17.6186C29.8099 15.6111 32.4452 14.6705 34.4047 15.6604C35.3649 16.1458 35.7098 16.9312 35.6531 17.8939C35.4876 20.7202 32.6654 22.0569 30.8424 21.4119L30.8422 21.4126ZM30.6555 16.5182L30.6736 16.4771L30.6346 16.4542C29.6829 16.833 29.0818 18.1925 29.3738 19.3055C29.6266 20.2694 30.5421 20.9421 31.5202 20.8842C33.1927 21.112 34.8077 19.7361 34.8568 18.0418C34.8912 16.8699 34.3417 16.1854 33.1926 16.1477C32.4269 16.1224 31.6573 16.2712 30.8889 16.3417C30.8114 16.4004 30.7339 16.459 30.6555 16.5182Z" fill="#1E1E1E"/>
<path id="Vector_6" d="M24.8993 19.5968C24.6356 19.5518 24.3675 19.5236 24.1092 19.4583C20.7941 18.6159 17.4787 17.7719 14.1669 16.9173C13.8571 16.8374 13.5536 16.7046 13.2767 16.5464C13.1696 16.485 13.0535 16.2203 13.0969 16.1618C13.1878 16.0414 13.3787 15.9438 13.535 15.9343C13.7146 15.9233 13.9024 16.0148 14.0861 16.0656C16.2356 16.654 18.3925 17.2149 20.5305 17.8407C21.8573 18.2289 23.1567 18.711 24.4653 19.1613C24.6322 19.2185 24.7778 19.3377 24.9328 19.4275L24.8993 19.5968Z" fill="#1E1E1E" stroke="#1E1E1E" stroke-width="0.25"/>
<path id="Vector_7" d="M32.4329 21.7833C32.4952 22.486 32.5099 23.197 32.6371 23.8889C32.7041 24.2492 32.8938 24.7433 33.1682 24.8637C33.3912 24.9621 33.9191 24.6756 34.1421 24.4176C34.771 23.6914 35.3129 22.8939 35.8862 22.1212C36.1135 21.8162 36.3328 21.5056 36.6321 21.0922C36.7334 22.7445 35.0032 25.3988 33.6358 25.9153C32.8793 26.2004 32.347 25.9335 32.0298 25.2692C31.7907 24.7678 31.6681 24.2143 31.4541 23.5613C29.9063 24.76 28.3653 26.6325 26.2752 24.2573C25.9012 25.1233 25.5447 25.9506 25.1197 26.9354C25.2913 24.9857 25.6762 23.9279 26.3394 23.4432C26.3773 23.4533 26.4304 23.4511 26.4524 23.4758C27.811 25.0182 28.7097 25.0445 30.206 23.5435C30.834 22.9144 31.4183 22.2431 32.024 21.5905C32.1606 21.6552 32.2963 21.7186 32.4329 21.7833Z" fill="#1E1E1E"/>
<path id="Vector_8" d="M23.7166 15.6377C22.6861 15.3616 21.7415 15.1436 20.8193 14.8536C19.1113 14.3174 17.4169 13.7395 15.7165 13.1811C15.5097 13.1133 15.2677 13.0998 15.1016 12.9806C14.9382 12.8628 14.8507 12.6424 14.7298 12.4667C14.934 12.3906 15.1705 12.2056 15.337 12.2557C16.4547 12.5879 17.5595 12.9649 18.6648 13.3374C20.0785 13.8127 21.4877 14.2985 22.9004 14.7775C23.2658 14.9011 23.7007 14.9429 23.7164 15.6385L23.7166 15.6377Z" fill="#1E1E1E" stroke="#1E1E1E" stroke-width="0.25"/>
<path id="Vector_9" d="M14.9001 14.2929C15.2305 14.3814 15.5642 14.4607 15.891 14.56C17.076 14.9219 18.2631 15.2789 19.438 15.6723C19.6096 15.73 19.7175 15.9746 19.8552 16.1321C19.6654 16.1778 19.4487 16.3066 19.2904 16.2557C17.8811 15.8025 16.4794 15.3241 15.0822 14.8314C14.9504 14.7852 14.8709 14.5942 14.7669 14.4705C14.8115 14.4108 14.8552 14.3509 14.8998 14.2912L14.9001 14.2929Z" fill="#1E1E1E" stroke="#1E1E1E" stroke-width="0.25"/>
<path id="Vector_10" d="M20.655 20.2932C22.0026 20.6543 23.3514 21.011 24.6951 21.3866C24.7821 21.4107 24.8923 21.5882 24.8773 21.6737C24.8629 21.7539 24.6766 21.8815 24.6005 21.8611C23.2733 21.4946 21.9503 21.1098 20.6298 20.7186C20.588 20.7058 20.5792 20.582 20.5543 20.5092C20.5879 20.4372 20.6214 20.3652 20.6542 20.293L20.655 20.2932Z" fill="#1E1E1E" stroke="#1E1E1E" stroke-width="0.25"/>
<path id="Vector_11" d="M15.3408 11.0663C16.2107 10.8626 18.3871 11.593 18.986 12.3265C18.2325 12.2647 17.6322 12.0774 17.0602 11.8642C16.5027 11.6564 15.7661 11.7915 15.3408 11.0663Z" fill="#1E1E1E" stroke="#1E1E1E" stroke-width="0.25"/>
<path id="Vector_12" d="M39.0488 20.5883C39.439 21.5446 39.8285 22.5008 40.2188 23.4571C40.1794 23.498 40.1401 23.538 40.1006 23.5789C39.5163 23.2993 38.9319 23.0204 38.3391 22.737L38.9114 20.6013L39.0486 20.589L39.0488 20.5883Z" fill="#1E1E1E" stroke="#1E1E1E" stroke-width="0.25"/>
<path id="Vector_13" d="M37.653 25.3259L38.1396 23.5098C38.7132 23.8176 39.2506 24.1064 39.7881 24.3953L39.8025 24.572C39.1143 24.8135 38.4253 25.0547 37.654 25.3253L37.653 25.3259Z" fill="#1E1E1E" stroke="#1E1E1E" stroke-width="0.25"/>
<path id="Vector_14" d="M3.47545 34.8208C3.77763 34.7546 4.08054 34.6886 4.38271 34.6224C4.40441 34.71 4.46423 34.8623 4.44088 34.8755C3.92343 35.1744 3.39653 35.4583 2.87201 35.7452C3.0734 35.4371 3.27406 35.1289 3.47545 34.8208Z" fill="#1E1E1E" stroke="#1E1E1E" stroke-width="0.25"/>
<path id="Vector_15" d="M30.8884 16.3425C31.656 16.2718 32.4264 16.1231 33.1921 16.1484C34.3411 16.1861 34.8906 16.8706 34.8563 18.0425C34.8071 19.7368 33.1922 21.1128 31.5196 20.885C31.1692 20.7054 30.7879 20.5674 30.4753 20.3381C29.6598 19.7388 29.4523 18.4406 29.9896 17.5202C30.1989 17.1621 30.4192 16.81 30.634 16.4549L30.673 16.4778L30.6549 16.5189C30.7324 16.4603 30.8099 16.4016 30.8884 16.3425Z" fill="#1E1E1E"/>
<path id="Vector_16" d="M8.00081 33.8178C9.38996 33.055 10.742 32.2165 12.1765 31.5463C14.2588 30.5742 16.3788 29.6718 18.5267 28.8479C19.4429 28.4966 20.4686 28.4036 21.4776 28.9247C18.504 29.6152 15.6063 30.4472 12.9926 32.0095C12.7442 32.1029 12.4959 32.1963 12.2485 32.2899C11.5294 32.6835 10.8092 33.0769 10.0901 33.4705C9.73823 33.6605 9.38536 33.8502 9.03373 34.0392C8.76609 34.2006 8.4972 34.3626 8.22957 34.524C7.72413 34.7115 7.21922 34.897 6.71405 35.0836C7.14306 34.6613 7.57306 34.2394 8.0018 33.8181L8.00081 33.8178Z" fill="#1E1E1E"/>
<path id="Vector_17" d="M29.0519 41.14C29.1876 41.4967 29.371 41.8454 29.4383 42.2136C29.4684 42.3801 29.264 42.5847 29.166 42.772C29.0078 42.6734 28.8497 42.5747 28.6926 42.4764C28.5323 42.1201 28.3733 41.7629 28.213 41.4066C27.4719 40.1484 26.7297 38.89 25.9886 37.6318L22.7002 32.3345L22.18 31.4467C22.1273 31.3556 22.0746 31.2646 22.0211 31.1722L22.1133 30.7148C22.3178 30.8625 22.5238 31.0096 22.7283 31.1574C23.0792 31.7266 23.4302 32.2959 23.7811 32.8652C23.9637 33.0863 24.1465 33.3064 24.3302 33.5278C24.6814 34.1006 25.0325 34.6734 25.3834 35.2472C25.5684 35.4724 25.7531 35.6987 25.9381 35.9239L26.9875 37.6401C27.2846 38.0572 27.5825 38.4756 27.8796 38.8927C28.2179 39.4701 28.5547 40.0483 28.893 40.6256C28.9463 40.7972 28.9994 40.9698 29.0527 41.1414L29.0519 41.14Z" fill="#1E1E1E"/>
<path id="Vector_18" d="M8.6148 33.8567C8.74378 33.8336 8.8737 33.8101 9.00268 33.787C8.93237 33.8336 8.86225 33.8794 8.79194 33.926C8.73307 33.9032 8.67347 33.8802 8.6146 33.8574L8.6148 33.8567Z" fill="#1E1E1E" stroke="#1E1E1E" stroke-width="0.25"/>
<path id="Vector_19" d="M8.19771 34.2449C8.21083 34.19 8.22321 34.1349 8.23633 34.08C8.22321 34.1349 8.21083 34.19 8.19771 34.2449Z" fill="#1E1E1E" stroke="#1E1E1E" stroke-width="0.25"/>
<path id="Vector_20" d="M26.1039 34.2248C26.1573 34.2383 26.21 34.2516 26.2634 34.2652L26.2228 34.4256C26.1838 34.3583 26.1448 34.291 26.1058 34.2237L26.1039 34.2248Z" fill="#1E1E1E" stroke="#1E1E1E" stroke-width="0.25"/>
<path id="Vector_21" d="M25.992 34.025C25.9245 33.9874 25.8576 33.95 25.79 33.9125C25.855 33.9509 25.9205 33.9903 25.9855 34.0287L25.992 34.025Z" fill="#1E1E1E" stroke="#1E1E1E" stroke-width="0.25"/>
<path id="Vector_22" d="M26.1054 34.2237C26.0677 34.1575 26.0292 34.0912 25.9915 34.025L25.985 34.0287L26.1036 34.2248L26.1054 34.2237Z" fill="#1E1E1E" stroke="#1E1E1E" stroke-width="0.25"/>
</g>
</g>
</g>
</g>
</g>
<defs>
<clipPath id="clip0_1153_64864">
<rect width="36" height="36.8571" fill="white" transform="translate(10.3828 0.969208) rotate(15)"/>
</clipPath>
</defs>
</svg>
