<svg width="25" height="25" viewBox="0 0 25 25" fill="none" xmlns="http://www.w3.org/2000/svg">
<g clip-path="url(#clip0_477_6653)">
<path d="M13.728 3.68604C15.1877 3.77985 16.6035 4.03222 17.9293 4.71294C20.8366 6.20676 21.772 9.24022 21.435 11.6882C20.8769 15.7406 18.2937 18.2555 14.8752 20.0359C12.5246 21.2599 10.079 21.5144 7.56856 20.5137C4.84856 19.4308 3.11877 16.8649 3.07268 13.9304C3.04027 11.8664 3.57534 9.9704 4.55834 8.18349C4.56915 8.0984 4.58067 8.01331 4.59147 7.92822C4.52738 7.93694 4.46328 7.94567 4.39991 7.9544H3.96206C5.19351 6.88313 6.29894 5.9224 7.40365 4.96167C7.42381 5.11731 7.44325 5.27294 7.47926 5.55367C7.92143 5.22858 8.26638 4.97549 8.61133 4.7224C8.87779 4.64676 9.14064 4.55658 9.4107 4.4984C10.5745 4.24822 11.7397 4.00822 12.9049 3.76385C13.1792 3.73767 13.4536 3.71222 13.728 3.68604V3.68604ZM13.2239 4.57694C11.1909 4.63513 9.39629 5.39585 7.56064 6.10713C6.17003 6.64604 5.39804 7.64894 4.90329 8.9224C4.47985 10.0119 4.06864 11.1479 3.92245 12.2984C3.46084 15.9209 5.35555 18.9704 8.80577 19.8919C10.5377 20.3544 12.1955 20.1442 13.8036 19.4351C16.7972 18.1144 19.142 16.1086 20.1776 12.8715C21.1448 9.84967 20.0141 6.20458 16.1419 5.09476C15.1971 4.82422 14.1975 4.74494 13.2232 4.57767L13.2239 4.57694Z" fill="#232323"/>
<path d="M8.61101 4.72172C8.26606 4.97481 7.92183 5.22791 7.47894 5.553C7.44293 5.27227 7.42348 5.11663 7.40332 4.961C8.13427 4.23881 9.04886 3.85336 9.99225 3.521C10.0002 3.61118 10.0088 3.70136 10.0167 3.79154L10.0117 3.79518C9.94904 3.82791 9.88639 3.85991 9.82446 3.89263C9.44278 4.06572 9.05678 4.22863 8.68518 4.42209C8.62541 4.45336 8.63333 4.61918 8.61029 4.72245L8.61101 4.72172Z" fill="#232323"/>
<path d="M10.0176 3.79131C10.0097 3.70113 10.0011 3.61095 9.99316 3.52077C11.2613 3.04295 12.5144 2.90549 13.7278 3.68513C13.4535 3.71131 13.1791 3.73677 12.9047 3.76295C13.0235 3.35786 12.7002 3.42186 12.5209 3.44295C11.6848 3.54186 10.8523 3.67204 10.0176 3.79058V3.79131Z" fill="#232323"/>
<path d="M10.0124 3.79492C9.94978 3.82765 9.88713 3.85965 9.8252 3.89238C9.88785 3.85965 9.9505 3.82765 10.0124 3.79492Z" fill="#232323"/>
<path d="M7.58519 11.4866C7.71481 11.7136 7.84516 11.9397 7.97478 12.1666C8.59627 13.2532 9.18391 14.3623 9.85293 15.4183C10.2713 16.0794 10.5155 16.0932 11.0304 15.4866C12.4095 13.8641 13.7424 12.2016 15.0963 10.5572C15.6516 9.88301 16.2097 9.21247 16.7721 8.5441C16.9039 8.38774 17.0357 8.16956 17.2064 8.12229C17.4951 8.04229 17.9287 7.94774 18.0914 8.0961C18.2607 8.25029 18.1944 8.68301 18.2002 8.99429C18.2016 9.07429 18.0893 9.16083 18.0216 9.23792C16.093 11.4386 14.1702 13.6452 12.228 15.8336C11.9248 16.1746 11.5546 16.4706 11.173 16.7208C10.5788 17.1092 10.0675 17.0474 9.60952 16.4939C9.25449 16.0656 8.9333 15.5826 8.70934 15.0736C8.24988 14.0277 7.86316 12.9499 7.45556 11.8816C7.41811 11.7841 7.45052 11.659 7.45052 11.547C7.49589 11.5274 7.54054 11.507 7.58591 11.4874L7.58519 11.4866Z" fill="#232323"/>
</g>
<defs>
<clipPath id="clip0_477_6653">
<rect width="18.4286" height="18" fill="white" transform="translate(3.07129 3.13184)"/>
</clipPath>
</defs>
</svg>
