<svg width="32" height="33" viewBox="0 0 32 33" fill="none" xmlns="http://www.w3.org/2000/svg">
<path d="M31.6914 16.4612C30.4756 15.9649 29.674 15.1038 28.8264 14.1911L28.6369 13.9877C27.9924 13.2974 27.4508 12.7442 26.9322 12.2465C25.1801 10.5662 23.3144 10.0292 21.2265 10.6069C20.9097 10.6951 20.6064 10.7995 20.2841 10.9121C20.2489 10.9243 20.2151 10.9365 20.1799 10.9487C20.731 8.17272 20.2097 4.68889 17.1375 2.84594C16.4632 2.44183 15.8106 1.9699 15.1783 1.51289C14.8425 1.27015 14.4959 1.01927 14.1479 0.780598C14.0558 0.718217 13.7525 0.589387 13.5846 0.737202C13.4519 0.853827 13.4018 1.03555 13.3653 1.19692C13.3301 1.35152 13.3044 1.50883 13.2786 1.66207C13.2312 1.94549 13.1852 2.21264 13.0931 2.45946C12.9632 2.80391 12.7858 3.14293 12.6138 3.47111C12.5285 3.6352 12.4419 3.79793 12.362 3.96338C11.2233 6.29045 10.9132 8.44123 11.4129 10.5405C11.4887 10.8578 11.5726 11.167 11.662 11.4938C11.6728 11.5332 11.6836 11.5725 11.6945 11.6118C7.1952 10.4754 3.52049 12.2587 0.215424 14.3701L0.00149536 14.5057L0.180221 14.6847C0.438831 14.9438 0.69338 15.1973 0.946574 15.4496C1.5342 16.0341 2.08798 16.586 2.64311 17.1569C2.91933 17.4417 3.19418 17.74 3.45956 18.0289C3.88201 18.49 4.31934 18.966 4.78376 19.4026C6.63465 21.1398 8.92017 21.5656 10.939 20.5607C10.0399 22.6858 10.2552 24.3266 11.6403 26.133C12.2415 26.9168 12.9605 27.6206 13.655 28.3027C13.9096 28.5523 14.1723 28.8086 14.4241 29.0662C15.2148 29.8704 15.7334 30.7112 16.0083 31.6333C16.0502 31.7717 16.122 31.8869 16.2073 32.0212C16.2466 32.0822 16.2885 32.1487 16.3305 32.2246L16.5824 32.6694L16.7042 32.1731C16.7516 31.9791 16.7882 31.8015 16.8247 31.6293C16.8938 31.2929 16.9533 31.0027 17.0657 30.7437C17.5261 29.6819 18.0243 28.5536 18.6038 27.4647C19.6789 25.4454 19.9375 23.5754 19.3932 21.7487C19.3485 21.5982 19.2835 21.4585 19.2213 21.3242C19.1942 21.2659 19.1671 21.2076 19.1414 21.1479L19.0777 20.9988L18.5592 21.095L18.5619 21.2673C18.5632 21.35 18.5619 21.4341 18.5619 21.5181C18.5619 21.7039 18.5592 21.8965 18.5808 22.0904C18.746 23.6093 18.5957 24.9396 18.1205 26.1574C17.7481 27.1121 17.3555 28.0654 16.9764 28.9889C16.8559 29.2818 16.7367 29.5721 16.6189 29.8609C16.562 29.789 16.5065 29.7158 16.4483 29.6412C16.1355 29.2357 15.8106 28.8167 15.4382 28.4329C15.1458 28.1305 14.8195 27.8566 14.504 27.5935C14.2345 27.367 13.9556 27.1338 13.6984 26.8815C13.0647 26.2591 12.4107 25.6136 11.8719 24.9084C11.0933 23.8873 10.6194 21.6578 12.0736 20.1186C12.4839 19.6847 12.955 19.3009 13.4127 18.9293C13.5846 18.7897 13.7498 18.6554 13.9109 18.5198C16.4971 19.8366 19.3242 20.36 23.0557 20.2163C26.3784 20.0888 29.2218 18.9727 31.7469 16.8057L32.0001 16.5887L31.6914 16.4626V16.4612ZM16.2696 18.5795C15.2879 18.3205 14.4214 18.0492 13.7579 17.3495L13.6036 17.1868L13.4574 17.3563C13.345 17.4865 13.238 17.6139 13.1324 17.74C12.909 18.0058 12.6991 18.2581 12.469 18.4886C11.6985 19.2602 10.7128 19.8244 9.36699 20.261C8.43274 20.5648 7.54723 20.1987 6.96773 19.8379C6.35979 19.4596 5.75727 18.97 5.17641 18.3801C4.82573 18.0248 4.48859 17.6356 4.16228 17.26C3.33635 16.308 2.4847 15.3275 1.26205 14.6712C1.3284 14.6386 1.39203 14.6074 1.45567 14.5749C1.82395 14.3932 2.14214 14.2359 2.46845 14.0826L2.61468 14.0135C4.2029 13.2649 5.84528 12.4906 7.63389 12.2505C9.39677 12.0159 11.0974 12.3387 12.8332 13.2378C12.909 13.2771 12.9821 13.2947 13.0837 13.3191C13.1351 13.3313 13.1974 13.3463 13.2759 13.368L13.6578 13.4737L13.5196 13.1008C13.4899 13.0222 13.4682 12.9516 13.4479 12.8879C13.4059 12.755 13.3707 12.6411 13.2989 12.5367C12.1169 10.8158 11.8583 8.83179 12.5109 6.47353C12.7939 5.44967 13.2069 4.43801 13.6063 3.46162C13.7566 3.09276 13.9123 2.71305 14.0585 2.33605C17.0021 3.83997 19.0398 5.50933 19.4704 8.62566C19.6694 10.0672 18.987 11.1887 18.3276 12.2736C18.2369 12.4228 18.1178 12.5584 17.9932 12.7021C17.893 12.816 17.7901 12.9354 17.698 13.0642C17.6209 13.174 17.6033 13.3002 17.5884 13.4114C17.5829 13.448 17.5789 13.4846 17.5708 13.5198L17.499 13.8304L17.8104 13.7639C17.8416 13.7572 17.8754 13.7531 17.9079 13.749C18.0094 13.7368 18.1245 13.7233 18.2288 13.6541C18.5416 13.4466 18.853 13.2296 19.1549 13.0181C19.6924 12.6424 20.2489 12.2546 20.819 11.9169C22.5317 10.8998 24.273 11.0992 25.7244 12.4784C26.2078 12.9381 26.6587 13.4561 27.0933 13.9565L27.291 14.183C28.1359 15.1567 29.0065 16.1615 30.2521 16.8098L29.4303 17.1881C28.5218 17.6071 27.5821 18.0397 26.6533 18.4547C24.1741 19.5626 21.5894 19.8176 18.9735 19.2101C18.6946 19.145 18.4156 19.0826 18.1367 19.0202C17.5234 18.8832 16.8884 18.7408 16.2723 18.5781L16.2696 18.5795Z" fill="#231F20"/>
</svg>
