<svg width="19" height="18" viewBox="0 0 19 18" fill="none" xmlns="http://www.w3.org/2000/svg">
<path d="M5.21709 8.87226C4.87459 8.67076 4.54967 8.48942 4.23393 8.29257C2.67969 7.32306 1.76686 5.86687 1.19042 4.15802C1.04746 3.73411 0.939664 3.29547 0.758475 2.88937C0.61857 2.57473 0.385395 2.30348 0.201148 2.00899C0.146868 1.92219 0.0864718 1.81757 0.0918234 1.72535C0.095646 1.6711 0.218732 1.59592 0.298241 1.5812C1.234 1.4045 2.18505 1.2929 3.10628 1.05808C5.86922 0.355172 8.07559 2.13221 9.2514 4.0627C9.42648 3.70931 9.57938 3.36444 9.7621 3.03662C10.6275 1.49053 12.0075 0.871312 13.694 0.834113C14.3262 0.820163 14.96 0.831013 15.5922 0.852712C16.6282 0.887587 17.6656 0.961985 18.7191 0.511719C18.5195 3.13504 17.5387 5.33988 15.8338 7.20604C14.1618 9.03578 12.2819 10.5811 9.79726 11.3786C9.74834 12.0288 9.63595 12.7317 9.65507 13.4307C9.7017 15.1326 11.1657 16.2253 12.3301 16.3842C13.0319 16.4803 13.7505 16.4733 14.4608 16.4671C15.0655 16.4617 15.6695 16.3509 16.2727 16.3602C16.8575 16.3695 17.4416 16.4725 17.9699 16.5283C17.5425 15.4984 17.1075 14.4196 16.6473 13.3525C16.1954 12.3062 15.4806 11.4638 14.6068 10.7524C14.4439 10.6199 14.3033 10.4594 14.1519 10.3122C14.1802 10.2703 14.2092 10.2277 14.2375 10.1859C14.3897 10.2479 14.5495 10.2944 14.6932 10.3734C16.1083 11.1484 16.8827 12.4039 17.3399 13.9259C17.6159 14.8451 17.9576 15.7456 18.3055 16.6399C18.4355 16.974 18.6686 17.2669 18.9079 17.6683C18.7076 17.6118 18.5578 17.5978 18.4354 17.5312C17.6939 17.1259 16.8996 16.9701 16.0639 16.9623C15.015 16.9538 13.9539 17.0197 12.9203 16.8825C11.0495 16.6337 10.0954 15.7603 9.45171 13.9174C9.39972 13.9941 9.34391 14.0461 9.32556 14.1096C8.79499 15.9332 7.26062 16.8965 5.37458 16.9585C4.56955 16.9848 3.76147 16.912 2.95491 16.9011C2.05738 16.8895 1.15984 16.8988 0.22179 16.8988C0.928196 13.6609 2.06579 10.6594 5.21709 8.87304V8.87226ZM18.2688 1.12008C17.1021 1.575 15.95 1.46495 14.7979 1.38435C14.2482 1.3456 13.6955 1.3053 13.1458 1.32003C11.5136 1.36343 10.3752 2.27016 9.96928 3.88058C9.76745 4.68114 9.65583 5.50495 9.49375 6.31636C9.47617 6.40316 9.39666 6.47678 9.34544 6.5566C9.2904 6.46748 9.20248 6.38456 9.18642 6.28846C9.14208 6.02109 9.15813 5.74132 9.09544 5.47937C8.84469 4.43469 8.58781 3.42024 7.65282 2.7026C5.51066 1.05808 3.2546 1.4417 0.864742 2.24614C1.35785 3.36366 1.77604 4.54009 2.37465 5.6119C3.23625 7.15412 4.46329 8.30807 6.27364 8.64752C6.38755 8.66921 6.49153 8.74439 6.67042 8.82809C6.51752 8.91643 6.45483 8.96758 6.38373 8.99083C4.97704 9.4442 3.7867 10.2099 2.87999 11.4127C1.98016 12.6054 1.50081 13.9965 1.00847 15.3829C0.864742 15.7875 0.732482 16.1951 0.560467 16.7027C2.08949 16.116 3.56499 16.478 5.03284 16.4873C5.64522 16.4911 6.27288 16.4353 6.86843 16.2951C7.56108 16.1315 8.20326 15.7642 8.53659 15.1008C8.97618 14.2274 9.29192 13.2943 9.29192 12.2915C9.29192 11.9032 9.24223 11.5142 9.21318 11.0903C10.0358 11.112 10.7086 10.7377 11.3683 10.3478C11.9952 9.97739 12.6022 9.57207 13.2184 9.18303C15.0525 8.02288 16.3468 6.41168 17.1182 4.36882C17.4936 3.37529 17.8537 2.37633 18.2183 1.37893C18.2397 1.32003 18.2428 1.25493 18.2688 1.12086V1.12008Z" fill="#98A2B3" stroke="#98A2B3" stroke-width="0.5"/>
</svg>
