<svg width="24" height="25" viewBox="0 0 24 25" fill="none" xmlns="http://www.w3.org/2000/svg">
<g clip-path="url(#clip0_477_15446)">
<path d="M3.94278 9.54149C3.75279 10.3813 3.35598 11.1478 3.173 12.0043C2.63246 14.5341 4.12576 17.8132 6.68821 18.8281C8.8903 19.7004 11.0686 19.5939 13.2244 18.799C16.042 17.7599 18.3226 16.0713 19.539 13.246C21.5371 8.60688 17.7421 5.04003 14.398 4.50182C12.3333 4.16907 10.385 4.51911 8.57481 5.54503C8.15346 5.7837 7.79591 6.13374 7.40892 6.4319C7.22874 6.37033 7.04856 6.30946 6.86839 6.24789L6.94971 5.83005L6.93639 5.85219L7.38929 5.54434L7.38438 5.5478L7.54002 5.39145L7.5253 5.40114C7.65219 5.34718 7.77909 5.29253 7.90668 5.23857C8.39043 4.93764 8.87487 4.63671 9.35862 4.33579C11.818 3.39426 14.2816 3.20817 16.7284 4.35862C19.6435 5.72905 21.2629 8.46369 20.965 11.5491C20.8079 13.1775 20.1391 14.6324 19.0637 15.8575C16.4479 18.8364 13.1613 20.4877 9.11605 20.2545C4.73921 20.0006 1.94821 16.6192 2.69065 12.1412C2.84279 11.2239 3.26484 10.3502 3.5628 9.4564C3.68899 9.48476 3.81589 9.51313 3.94208 9.54149H3.94278Z" fill="#232323"/>
<path d="M9.35816 4.33468C8.87441 4.6356 8.38997 4.93653 7.90622 5.23746C7.77933 5.29142 7.65243 5.34607 7.52484 5.40003L7.53956 5.39034L7.38392 5.54669L7.38883 5.54323L6.93593 5.85107L6.94925 5.82894C6.82726 5.93616 6.70527 6.04339 6.58329 6.15131C6.64989 6.19559 6.71719 6.23986 6.78379 6.28344C6.61764 6.47645 6.45148 6.67015 6.28533 6.86316C6.29795 6.30904 5.96423 6.75939 5.80579 6.70197C5.80999 6.57261 5.76022 6.38721 5.82752 6.32357C6.83638 5.37443 7.90412 4.51662 9.35816 4.33398V4.33468Z" fill="#232323"/>
<path d="M3.94276 9.54181C3.81657 9.51345 3.68967 9.48508 3.56348 9.45672C4.13416 8.60997 4.70133 7.76046 5.28252 6.91993C5.33651 6.84245 5.47883 6.82447 5.58048 6.77881C5.60642 6.85975 5.63306 6.94138 5.659 7.02232L5.55314 7.15652C4.92147 7.57506 4.66698 8.24886 4.34518 8.87908C4.2281 9.10806 4.07877 9.32113 3.94346 9.54181H3.94276Z" fill="#232323"/>
<path d="M11.5359 11.9423C12.1395 12.8783 12.673 13.7029 13.203 14.5296C13.3089 14.6949 13.407 14.8651 13.4989 15.0388C13.6524 15.3286 13.6924 15.678 13.3587 15.7907C13.1596 15.8578 12.7614 15.7119 12.6232 15.5327C12.0673 14.8139 11.5793 14.0447 11.0626 13.2961C10.9799 13.1765 10.8769 13.0706 10.7114 12.8714C9.72568 14.1048 8.7645 15.3085 7.80192 16.5109C7.58669 16.78 7.41072 17.11 7.13519 17.2912C6.93188 17.4254 6.52245 17.4745 6.34227 17.3562C6.17471 17.2462 6.07236 16.827 6.14667 16.6133C6.2967 16.1816 6.54629 15.7672 6.82532 15.3978C7.77528 14.1422 8.75609 12.9101 9.78457 11.5923C9.14869 10.861 8.47145 10.0883 7.80122 9.30937C7.60842 9.08592 7.39319 8.86524 7.2691 8.60513C7.18848 8.43564 7.18006 8.07107 7.2719 8.01849C7.44647 7.91887 7.77388 7.88982 7.93372 7.99151C8.28286 8.21427 8.58783 8.51865 8.87317 8.82304C9.44595 9.43527 9.99419 10.0703 10.3826 10.5055C11.1243 9.89116 11.871 9.25541 12.6359 8.64387C13.3671 8.05861 14.1053 7.48028 14.8688 6.93723C15.1212 6.75736 15.4535 6.66743 15.7641 6.5941C15.9043 6.56089 16.1679 6.6273 16.2156 6.72485C16.2857 6.86666 16.2808 7.13369 16.1854 7.24922C15.8896 7.60895 15.5348 7.92164 15.2046 8.2537C13.9861 9.47816 12.7677 10.7033 11.5366 11.9402L11.5359 11.9423Z" fill="#232323"/>
<path d="M6.28543 6.86386C6.45159 6.67085 6.61774 6.47784 6.7839 6.28414L6.81755 6.24609L6.86873 6.24748C7.04891 6.30905 7.22908 6.36992 7.40926 6.43149C7.00123 6.86939 6.59321 7.30799 6.18518 7.74589C6.08072 7.64212 5.97555 7.53766 5.87109 7.43389C6.00921 7.24365 6.14732 7.05341 6.28543 6.86317V6.86386Z" fill="#232323"/>
<path d="M5.87105 7.43457C5.97551 7.53834 6.08067 7.6428 6.18513 7.74657C5.9019 8.06479 5.61936 8.38301 5.33613 8.70054C5.26812 8.65558 5.20082 8.60992 5.13281 8.56495C5.14263 8.06963 5.55066 7.77424 5.87105 7.43457Z" fill="#232323"/>
<path d="M6.93652 5.85179L7.38942 5.54395L6.93652 5.85179Z" fill="#232323"/>
<path d="M7.52539 5.40085C7.65229 5.34689 7.77918 5.29224 7.90678 5.23828C7.77988 5.29224 7.65299 5.34689 7.52539 5.40085Z" fill="#232323"/>
<path d="M7.38379 5.54648L7.53943 5.39014L7.38379 5.54648Z" fill="#232323"/>
</g>
<defs>
<clipPath id="clip0_477_15446">
<rect width="18.4286" height="16.7143" fill="white" transform="translate(2.57129 3.56055)"/>
</clipPath>
</defs>
</svg>
